#!OML:ASF F:\VICON\USERDATA\INSTALL\rory3\rory3.ASF
:FULLY-SPECIFIED
:DEGREES
652
root -0.0136963 18.7266 2.69456 -144.082 86.714 -144.21
lowerback 7.00229 3.19659 -1.39128
upperback 1.08015 4.16072 -0.540821
thorax -2.86034 2.09353 -0.16985
lowerneck -6.1069 -1.59852 -4.11112
upperneck 6.13204 -2.27307 7.54971
head 3.2626 -0.925903 3.15874
rclavicle -1.7344e-014 1.78906e-014
rhumerus -39.1763 -30.5924 -29.305
rradius 27.3774
rwrist -6.82268
rhand -30.9637 -10.6137
rfingers 7.12502
rthumb -4.2481 -40.5511
lclavicle -1.7344e-014 1.78906e-014
lhumerus -51.702 20.5899 44.0241
lradius 65.0276
lwrist 52.8735
lhand -20.9175 27.8131
lfingers 7.12502
lthumb 5.45399 57.7229
rfemur -9.81366 15.9049 10.1154
rtibia 34.7202
rfoot -9.9828 -17.5571
rtoes -16.8336
lfemur -5.36789 -11.8123 -15.3813
ltibia 24.0902
lfoot -17.2716 14.092
ltoes -8.37027
653
root -0.0124235 18.7194 2.6664 -145.236 86.7025 -145.246
lowerback 7.08083 3.23273 -1.27495
upperback 1.11932 4.2182 -0.508806
thorax -2.85825 2.12127 -0.210383
lowerneck -6.37245 -0.407443 -3.7644
upperneck 6.23647 -0.691891 7.4546
head 3.23521 -0.129657 3.13853
rclavicle 2.93207e-015 -9.93923e-015
rhumerus -39.7885 -30.1837 -28.0931
rradius 28.8006
rwrist -7.97016
rhand -31.0305 -10.2819
rfingers 7.12502
rthumb -4.31255 -40.218
lclavicle 2.93207e-015 -9.93923e-015
lhumerus -51.5631 20.837 44.9454
lradius 64.9258
lwrist 52.1035
lhand -21.0166 28.3842
lfingers 7.12502
lthumb 5.35831 58.2964
rfemur -9.97079 16.381 9.9801
rtibia 35.2078
rfoot -9.83574 -17.6387
rtoes -16.7196
lfemur -5.30234 -11.6719 -15.5017
ltibia 24.2016
lfoot -17.1913 13.7601
ltoes -8.40526
654
root -0.0111608 18.7153 2.6443 -146.541 86.7223 -146.479
lowerback 7.18344 3.36613 -1.11189
upperback 1.13009 4.40429 -0.621004
thorax -2.88467 2.21226 -0.439899
lowerneck -6.65073 0.64953 -3.14446
upperneck 6.31131 0.686908 7.31263
head 3.21937 0.571977 3.03981
rclavicle -5.46161e-014 2.0276e-014
rhumerus -40.8976 -30.0907 -26.813
rradius 30.4603
rwrist -9.13787
rhand -30.9732 -9.95815
rfingers 7.12502
rthumb -4.25729 -39.8953
lclavicle -5.46161e-014 2.0276e-014
lhumerus -51.1125 20.8504 45.948
lradius 64.8826
lwrist 51.3099
lhand -21.4885 28.767
lfingers 7.12502
lthumb 4.90265 58.6903
rfemur -10.1993 16.6858 9.77944
rtibia 35.7306
rfoot -9.79293 -17.4997
rtoes -16.3584
lfemur -5.23073 -11.3427 -15.6074
ltibia 24.1887
lfoot -16.9544 13.3163
ltoes -8.89465
655
root -0.0104126 18.715 2.62323 -149.98 86.8305 -149.925
lowerback 7.29603 3.48295 -1.1296
upperback 1.05804 4.55106 -0.77366
thorax -3.01119 2.28478 -0.611584
lowerneck -6.81729 1.7127 -2.628
upperneck 6.42393 2.07071 7.28815
head 3.2067 1.27712 3.0014
rclavicle -1.94312e-014 7.15625e-015
rhumerus -42.0073 -30.011 -25.5779
rradius 32.1705
rwrist -9.98259
rhand -30.9298 -9.8879
rfingers 7.12502
rthumb -4.21536 -39.8259
lclavicle -1.94312e-014 7.15625e-015
lhumerus -50.9187 20.8221 46.9432
lradius 65.0036
lwrist 50.5746
lhand -21.8297 28.8225
lfingers 7.12502
lthumb 4.57317 58.7532
rfemur -10.5097 16.793 9.32992
rtibia 36.2002
rfoot -9.78812 -17.1583
rtoes -15.6902
lfemur -5.18766 -11.2526 -15.9263
ltibia 24.103
lfoot -16.8524 13.2599
ltoes -9.4002
656
root -0.0112866 18.7173 2.59954 -154.058 86.8113 -154.02
lowerback 7.39038 3.50538 -1.1673
upperback 1.00288 4.57404 -0.807548
thorax -3.12095 2.29612 -0.636632
lowerneck -6.99751 2.84823 -2.11949
upperneck 6.62603 3.55331 7.13189
head 3.23189 2.02608 2.92695
rclavicle 8.91052e-014 -1.70955e-014
rhumerus -42.7929 -29.8439 -24.5119
rradius 33.7945
rwrist -10.0486
rhand -31.6481 -9.67626
rfingers 7.12502
rthumb -4.90893 -39.5994
lclavicle 8.91052e-014 -1.70955e-014
lhumerus -50.704 20.9421 47.9798
lradius 65.0062
lwrist 49.7454
lhand -22.1392 28.9283
lfingers 7.12502
lthumb 4.27437 58.8652
rfemur -10.7699 16.706 8.92679
rtibia 36.5936
rfoot -9.5013 -16.8268
rtoes -15.708
lfemur -5.1339 -11.4932 -16.2459
ltibia 23.955
lfoot -16.7415 13.4489
ltoes -9.64528
657
root -0.0118117 18.7192 2.57886 -156.989 86.6786 -156.741
lowerback 7.69124 3.54483 -1.0918
upperback 1.02581 4.62922 -0.792702
thorax -3.26003 2.32275 -0.688651
lowerneck -7.32231 3.94159 -1.20418
upperneck 6.95921 4.95456 6.56531
head 3.36309 2.73057 2.64873
rclavicle -2.09718e-014 3.97569e-015
rhumerus -43.6338 -29.4771 -23.6289
rradius 35.5861
rwrist -10.1262
rhand -32.5734 -9.65499
rfingers 7.12502
rthumb -5.80233 -39.5555
lclavicle -2.09718e-014 3.97569e-015
lhumerus -50.1545 20.8619 49.1087
lradius 64.8015
lwrist 48.9364
lhand -22.4924 29.0227
lfingers 7.12502
lthumb 3.93329 58.9661
rfemur -10.718 16.6287 8.77119
rtibia 36.9208
rfoot -8.98158 -16.6309
rtoes -16.5121
lfemur -4.82865 -11.7054 -16.4587
ltibia 23.8002
lfoot -16.8579 13.3947
ltoes -8.96965
658
root -0.00941099 18.722 2.56441 -157.978 86.4798 -157.548
lowerback 7.91012 3.59929 -0.961789
upperback 1.05873 4.71219 -0.735025
thorax -3.34214 2.36263 -0.724034
lowerneck -7.52327 4.994 -0.411558
upperneck 7.13772 6.31582 5.99565
head 3.44061 3.40576 2.39052
rclavicle -1.06847e-014 7.95139e-015
rhumerus -44.5612 -29.4443 -22.5862
rradius 37.475
rwrist -10.57
rhand -32.8312 -9.81939
rfingers 7.12502
rthumb -6.05123 -39.713
lclavicle -1.06847e-014 7.95139e-015
lhumerus -49.5699 20.6878 50.3167
lradius 64.6337
lwrist 48.1167
lhand -22.7589 29.0771
lfingers 7.12502
lthumb 3.67596 59.0251
rfemur -10.6169 16.6733 8.77626
rtibia 37.1877
rfoot -8.64228 -16.5611
rtoes -17.0615
lfemur -4.62017 -11.5484 -16.463
ltibia 23.7099
lfoot -16.9012 12.9775
ltoes -8.27599
659
root -0.0072837 18.7246 2.55001 -158.557 86.181 -158.122
lowerback 7.93632 3.58628 -0.735562
upperback 1.05462 4.71507 -0.690187
thorax -3.34658 2.36129 -0.805385
lowerneck -7.4699 6.07087 0.0046525
upperneck 7.12606 7.74021 5.70726
head 3.39776 4.1084 2.28276
rclavicle 3.22528e-014 -5.96354e-015
rhumerus -45.3515 -29.4786 -21.6461
rradius 39.3308
rwrist -11.1842
rhand -32.6805 -9.83112
rfingers 7.12502
rthumb -5.90572 -39.7288
lclavicle 3.22528e-014 -5.96354e-015
lhumerus -49.1126 20.4406 51.5029
lradius 64.6843
lwrist 47.5532
lhand -22.8059 29.241
lfingers 7.12502
lthumb 3.63054 59.1898
rfemur -10.7105 16.3118 8.72136
rtibia 37.4537
rfoot -8.34528 -16.1573
rtoes -17.4022
lfemur -4.63597 -11.3561 -16.3786
ltibia 23.5964
lfoot -16.4472 12.7156
ltoes -9.74072
660
root -0.00421106 18.7241 2.53346 -160.125 85.9032 -159.667
lowerback 7.95609 3.55852 -0.505111
upperback 1.06199 4.69776 -0.698307
thorax -3.33088 2.35 -0.940364
lowerneck -7.41954 7.12131 0.452691
upperneck 7.14646 9.12439 5.42146
head 3.3813 4.79264 2.17216
rclavicle -4.51738e-014 1.03368e-014
rhumerus -46.0538 -29.4522 -20.9054
rradius 41.0817
rwrist -11.1332
rhand -33.1254 -9.62079
rfingers 7.12502
rthumb -6.33529 -39.506
lclavicle -4.51738e-014 1.03368e-014
lhumerus -48.7135 20.2057 52.6378
lradius 64.8825
lwrist 47.1463
lhand -22.7875 29.355
lfingers 7.12502
lthumb 3.64829 59.3035
rfemur -10.8267 15.5842 8.52521
rtibia 37.7531
rfoot -7.93576 -15.4626
rtoes -17.8184
lfemur -4.57963 -11.3091 -16.4022
ltibia 23.4193
lfoot -16.0999 12.4707
ltoes -10.4515
661
root -0.00426957 18.7263 2.5183 -168.246 85.6885 -167.679
lowerback 8.11625 3.52818 -0.78711
upperback 1.0926 4.62868 -0.840909
thorax -3.3993 2.31917 -0.933381
lowerneck -7.51078 8.15968 0.992458
upperneck 7.36137 10.4784 5.05427
head 3.48277 5.4638 2.04014
rclavicle -2.87741e-014 -2.38542e-015
rhumerus -46.6814 -29.2658 -20.4076
rradius 42.848
rwrist -10.9341
rhand -33.7286 -9.41606
rfingers 7.12502
rthumb -6.91754 -39.283
lclavicle -2.87741e-014 -2.38542e-015
lhumerus -48.3195 20.0036 53.7356
lradius 65.1291
lwrist 46.6973
lhand -22.7674 29.3647
lfingers 7.12502
lthumb 3.66776 59.3128
rfemur -10.8149 15.034 7.84188
rtibia 38.0912
rfoot -7.54347 -14.9706
rtoes -18.8883
lfemur -4.39525 -11.631 -17.0377
ltibia 23.2268
lfoot -16.0082 12.347
ltoes -9.90576
662
root -0.00604238 18.7277 2.50637 -177.199 85.423 -176.608
lowerback 8.2302 3.50582 -1.23769
upperback 1.09282 4.55358 -1.00936
thorax -3.48417 2.28748 -0.856934
lowerneck -7.48279 9.12005 1.4924
upperneck 7.5183 11.7393 4.6539
head 3.55738 6.08362 1.89661
rclavicle -1.28713e-014 -7.95139e-016
rhumerus -47.1393 -28.9602 -20.0924
rradius 44.5948
rwrist -10.9703
rhand -34.0787 -9.3024
rfingers 7.12502
rthumb -7.2555 -39.158
lclavicle -1.28713e-014 -7.95139e-016
lhumerus -47.8713 19.7702 54.8489
lradius 65.2652
lwrist 46.1254
lhand -22.4905 28.9603
lfingers 7.12502
lthumb 3.93513 58.9037
rfemur -10.8339 14.7762 7.03066
rtibia 38.3718
rfoot -7.34759 -14.74
rtoes -19.4321
lfemur -4.33185 -12.0003 -17.836
ltibia 23.0969
lfoot -15.9726 12.4247
ltoes -9.5614
